<svg width="24" height="24" viewBox="0 0 24 24" fill="none" xmlns="http://www.w3.org/2000/svg">
<path d="M12 21.5625C10.1087 21.5625 8.25991 21.0017 6.68736 19.9509C5.11482 18.9002 3.88917 17.4067 3.16541 15.6594C2.44164 13.9121 2.25227 11.9894 2.62125 10.1345C2.99022 8.27951 3.90096 6.57564 5.2383 5.2383C6.57564 3.90096 8.27951 2.99022 10.1345 2.62125C11.9894 2.25227 13.9121 2.44164 15.6594 3.16541C17.4067 3.88917 18.9002 5.11482 19.9509 6.68736C21.0017 8.25991 21.5625 10.1087 21.5625 12C21.5575 14.5346 20.5485 16.964 18.7562 18.7562C16.964 20.5485 14.5346 21.5575 12 21.5625ZM12 3.5625C10.3312 3.5625 8.69992 4.05736 7.31238 4.98448C5.92484 5.9116 4.84338 7.22936 4.20477 8.77111C3.56616 10.3129 3.39907 12.0094 3.72463 13.6461C4.05019 15.2828 4.85379 16.7862 6.03379 17.9662C7.2138 19.1462 8.71722 19.9498 10.3539 20.2754C11.9906 20.6009 13.6871 20.4339 15.2289 19.7952C16.7706 19.1566 18.0884 18.0752 19.0155 16.6876C19.9427 15.3001 20.4375 13.6688 20.4375 12C20.435 9.763 19.5453 7.61833 17.9635 6.03653C16.3817 4.45473 14.237 3.56499 12 3.5625ZM17.8125 12C17.8125 11.8508 17.7532 11.7077 17.6478 11.6023C17.5423 11.4968 17.3992 11.4375 17.25 11.4375H12.5625V6.75C12.5625 6.60082 12.5032 6.45775 12.3978 6.35226C12.2923 6.24677 12.1492 6.1875 12 6.1875C11.8508 6.1875 11.7077 6.24677 11.6023 6.35226C11.4968 6.45775 11.4375 6.60082 11.4375 6.75V12C11.4375 12.1492 11.4968 12.2923 11.6023 12.3978C11.7077 12.5032 11.8508 12.5625 12 12.5625H17.25C17.3992 12.5625 17.5423 12.5032 17.6478 12.3978C17.7532 12.2923 17.8125 12.1492 17.8125 12Z" fill="#212121"/>
</svg>
