<svg width="24" height="24" viewBox="0 0 24 24" fill="none" xmlns="http://www.w3.org/2000/svg">
<path d="M12.5 5.23636C11.7572 5.23636 11.031 5.47949 10.4134 5.935C9.79574 6.39051 9.31435 7.03794 9.03008 7.79542C8.74581 8.5529 8.67143 9.38642 8.81635 10.1906C8.96127 10.9947 9.31898 11.7333 9.84424 12.3131C10.3695 12.8928 11.0387 13.2877 11.7673 13.4476C12.4958 13.6076 13.251 13.5255 13.9373 13.2117C14.6236 12.898 15.2102 12.3666 15.6228 11.6849C16.0355 11.0032 16.2558 10.2017 16.2558 9.38182C16.2558 8.28238 15.8601 7.22796 15.1558 6.45054C14.4514 5.67312 13.4961 5.23636 12.5 5.23636ZM12.5 12.2182C11.9917 12.2182 11.4949 12.0518 11.0723 11.7402C10.6497 11.4285 10.3203 10.9855 10.1258 10.4672C9.93134 9.94897 9.88046 9.37867 9.97961 8.82847C10.0788 8.27827 10.3235 7.77288 10.6829 7.37621C11.0423 6.97953 11.5002 6.7094 11.9987 6.59995C12.4971 6.49051 13.0138 6.54668 13.4834 6.76136C13.953 6.97604 14.3543 7.33958 14.6367 7.80602C14.9191 8.27246 15.0698 8.82084 15.0698 9.38182C15.0672 10.1332 14.7956 10.853 14.3142 11.3843C13.8329 11.9156 13.1807 12.2153 12.5 12.2182ZM12.5 0C10.2465 0.00288721 8.08597 0.992253 6.49248 2.75106C4.89899 4.50987 4.00262 6.89449 4 9.38182C4 12.7527 5.42326 16.3309 8.10174 19.7345C9.30962 21.2813 10.6724 22.672 12.164 23.88C12.2623 23.9567 12.3795 23.9986 12.5 24C12.6233 23.9969 12.7432 23.9553 12.8459 23.88C14.3307 22.6668 15.6897 21.2766 16.8983 19.7345C19.5866 16.3309 21 12.7527 21 9.38182C20.9974 6.89449 20.101 4.50987 18.5075 2.75106C16.914 0.992253 14.7535 0.00288721 12.5 0ZM12.5 22.5273C11.0174 21.2618 5.18605 15.8836 5.18605 9.38182C5.18605 7.2408 5.95662 5.18747 7.32825 3.67354C8.69989 2.15961 10.5602 1.30909 12.5 1.30909C14.4398 1.30909 16.3001 2.15961 17.6717 3.67354C19.0434 5.18747 19.814 7.2408 19.814 9.38182C19.814 15.8836 13.9826 21.2618 12.5 22.5273Z" fill="#212121"/>
</svg>
