<svg width="60" height="60" viewBox="0 0 60 60" fill="none" xmlns="http://www.w3.org/2000/svg">
<g filter="url(#filter0_d_47_17497)">
<rect x="14" y="14" width="32" height="32" rx="4" fill="#F4F9FA"/>
<rect x="14.5" y="14.5" width="31" height="31" rx="3.5" stroke="#F4F9FA"/>
</g>
<g clip-path="url(#clip0_47_17497)">
<g clip-path="url(#clip1_47_17497)">
<g clip-path="url(#clip2_47_17497)">
<path d="M30 31.002C26.416 31.002 23.5 28.086 23.5 24.502C23.5 20.918 26.416 18.002 30 18.002C33.584 18.002 36.5 20.918 36.5 24.502C36.5 28.086 33.584 31.002 30 31.002ZM30 19.002C26.968 19.002 24.5 21.469 24.5 24.502C24.5 27.535 26.968 30.002 30 30.002C33.032 30.002 35.5 27.535 35.5 24.502C35.5 21.469 33.032 19.002 30 19.002Z" fill="#515151"/>
<path d="M30 28.002C28.07 28.002 26.5 26.432 26.5 24.502C26.5 22.572 28.07 21.002 30 21.002C31.93 21.002 33.5 22.572 33.5 24.502C33.5 26.432 31.93 28.002 30 28.002ZM30 22.002C28.621 22.002 27.5 23.124 27.5 24.502C27.5 25.88 28.621 27.002 30 27.002C31.379 27.002 32.5 25.88 32.5 24.502C32.5 23.124 31.379 22.002 30 22.002ZM34.5 42.001C34.2374 42.0014 33.9773 41.95 33.7346 41.8496C33.492 41.7492 33.2715 41.6018 33.086 41.416L30 38.221L26.92 41.409C26.6408 41.6897 26.2847 41.8814 25.8966 41.9596C25.5084 42.0379 25.1058 41.9993 24.7397 41.8486C24.3735 41.698 24.0603 41.4421 23.8396 41.1134C23.619 40.7847 23.5008 40.3979 23.5 40.002C23.5 39.467 23.708 38.965 24.086 38.588L27.107 35.631C26.9244 35.5853 26.743 35.5349 26.563 35.48C25.525 35.1543 24.5383 34.6837 23.632 34.082C23.2844 33.8523 22.9992 33.5401 22.8016 33.1733C22.6041 32.8065 22.5005 32.3965 22.5 31.98C22.5 31.262 22.88 30.644 23.516 30.325C23.8341 30.166 24.1903 30.0994 24.5444 30.1326C24.8984 30.1659 25.236 30.2976 25.519 30.513C28.124 32.461 31.876 32.461 34.482 30.513C34.7651 30.2978 35.1027 30.1662 35.4567 30.133C35.8106 30.0998 36.1669 30.1663 36.485 30.325C36.7938 30.4762 37.0532 30.712 37.2331 31.005C37.413 31.2981 37.5059 31.6362 37.501 31.98C37.501 32.825 37.077 33.611 36.368 34.082C35.4627 34.6833 34.477 35.1537 33.44 35.479C33.263 35.534 33.081 35.584 32.893 35.631L35.911 38.584C36.293 38.965 36.501 39.467 36.501 40.002C36.5013 40.2647 36.4497 40.5249 36.3492 40.7677C36.2487 41.0105 36.1013 41.2311 35.9154 41.4168C35.7295 41.6025 35.5088 41.7497 35.2659 41.8499C35.023 41.9501 34.7628 42.0015 34.5 42.001ZM30 37.002C30.136 37.002 30.266 37.057 30.359 37.155L33.798 40.716C34.165 41.081 34.827 41.088 35.206 40.71C35.2992 40.6173 35.3731 40.5071 35.4236 40.3858C35.4741 40.2645 35.5 40.1344 35.5 40.003C35.5 39.8715 35.4741 39.7414 35.4236 39.6201C35.3731 39.4988 35.2992 39.3886 35.206 39.296L31.523 35.693C31.4565 35.6288 31.4091 35.5475 31.3862 35.458C31.3632 35.3685 31.3657 35.2744 31.3932 35.1862C31.4207 35.098 31.4722 35.0191 31.5419 34.9585C31.6116 34.8979 31.6968 34.8579 31.788 34.843C32.268 34.76 32.725 34.653 33.142 34.525C34.0878 34.2276 34.987 33.7984 35.813 33.25C36.242 32.965 36.499 32.491 36.499 31.981C36.5027 31.823 36.4609 31.6673 36.3786 31.5324C36.2964 31.3975 36.1771 31.2891 36.035 31.22C35.8832 31.1439 35.7129 31.1124 35.5439 31.1291C35.3749 31.1457 35.2141 31.2098 35.08 31.314C33.602 32.418 31.846 33.002 29.999 33.002C28.152 33.002 26.395 32.419 24.918 31.314C24.784 31.2096 24.6231 31.1453 24.4541 31.1287C24.2851 31.1121 24.1148 31.1437 23.963 31.22C23.8211 31.2889 23.702 31.3972 23.6199 31.532C23.5378 31.6667 23.4962 31.8222 23.5 31.98C23.5 32.489 23.757 32.963 24.186 33.249C25.012 33.798 25.913 34.227 26.86 34.525C27.275 34.652 27.731 34.759 28.212 34.842C28.3023 34.8582 28.3865 34.899 28.4553 34.9597C28.5241 35.0205 28.5749 35.099 28.6023 35.1866C28.6296 35.2742 28.6324 35.3677 28.6103 35.4568C28.5882 35.5459 28.5421 35.6272 28.477 35.692L24.79 39.298C24.604 39.484 24.5 39.735 24.5 40.002C24.5 40.269 24.604 40.52 24.793 40.709C24.9834 40.891 25.2366 40.9926 25.5 40.9926C25.7634 40.9926 26.0166 40.891 26.207 40.709L29.641 37.155C29.6873 37.1064 29.743 37.0678 29.8048 37.0415C29.8665 37.0152 29.9329 37.0017 30 37.002Z" fill="#515151"/>
</g>
</g>
</g>
<defs>
<filter id="filter0_d_47_17497" x="0" y="0" width="60" height="60" filterUnits="userSpaceOnUse" color-interpolation-filters="sRGB">
<feFlood flood-opacity="0" result="BackgroundImageFix"/>
<feColorMatrix in="SourceAlpha" type="matrix" values="0 0 0 0 0 0 0 0 0 0 0 0 0 0 0 0 0 0 127 0" result="hardAlpha"/>
<feOffset/>
<feGaussianBlur stdDeviation="7"/>
<feColorMatrix type="matrix" values="0 0 0 0 0 0 0 0 0 0 0 0 0 0 0 0 0 0 0.06 0"/>
<feBlend mode="normal" in2="BackgroundImageFix" result="effect1_dropShadow_47_17497"/>
<feBlend mode="normal" in="SourceGraphic" in2="effect1_dropShadow_47_17497" result="shape"/>
</filter>
<clipPath id="clip0_47_17497">
<rect width="24" height="24" fill="white" transform="translate(18 18)"/>
</clipPath>
<clipPath id="clip1_47_17497">
<rect width="24" height="24" fill="white" transform="translate(18 18)"/>
</clipPath>
<clipPath id="clip2_47_17497">
<rect width="24" height="24" fill="white" transform="translate(18 18)"/>
</clipPath>
</defs>
</svg>
