<svg width="60" height="60" viewBox="0 0 60 60" fill="none" xmlns="http://www.w3.org/2000/svg">
<g filter="url(#filter0_d_47_17499)">
<rect x="14" y="14" width="32" height="32" rx="4" fill="#F4F9FA"/>
<rect x="14.5" y="14.5" width="31" height="31" rx="3.5" stroke="#F4F9FA"/>
</g>
<g clip-path="url(#clip0_47_17499)">
<path d="M39.5634 20.622C39.3822 20.4651 39.1617 20.3604 38.9255 20.3191C38.6894 20.2778 38.4464 20.3015 38.2227 20.3877L20.9165 27.1845C20.6509 27.2874 20.4261 27.4739 20.2758 27.7157C20.1255 27.9576 20.058 28.2418 20.0834 28.5255C20.1088 28.8091 20.2257 29.0768 20.4166 29.2881C20.6075 29.4995 20.8619 29.643 21.1415 29.697L25.6884 30.6064V36.2502C25.6887 36.5088 25.7654 36.7615 25.9088 36.9766C26.0522 37.1918 26.256 37.3598 26.4946 37.4595C26.6555 37.5251 26.8272 37.5601 27.0009 37.5627C27.1734 37.5637 27.3444 37.5303 27.5037 37.4642C27.6631 37.3982 27.8077 37.301 27.929 37.1783L30.4884 34.6189L34.3134 37.9845C34.5503 38.197 34.8576 38.3139 35.1759 38.3127C35.313 38.3138 35.4493 38.2916 35.579 38.247C35.7955 38.1782 35.99 38.0536 36.1431 37.8858C36.2961 37.7179 36.4023 37.5127 36.4509 37.2908L39.9852 21.9064C40.038 21.6742 40.0267 21.432 39.9524 21.2057C39.8781 20.9795 39.7436 20.7777 39.5634 20.622ZM21.2165 28.422C21.2099 28.3825 21.2176 28.342 21.2383 28.3076C21.2589 28.2733 21.291 28.2474 21.329 28.2345L35.8134 22.5439L26.1196 29.547L21.3665 28.5908C21.3251 28.5862 21.2868 28.5664 21.2591 28.5352C21.2314 28.504 21.2162 28.4637 21.2165 28.422ZM27.1321 36.3814C27.1061 36.4087 27.0721 36.427 27.0351 36.4337C26.998 36.4405 26.9598 36.4353 26.9259 36.4189C26.8929 36.4045 26.8648 36.381 26.8448 36.3511C26.8249 36.3211 26.814 36.2861 26.8134 36.2502V31.3845L29.6352 33.8783L27.1321 36.3814ZM35.3634 37.0377C35.3569 37.0702 35.342 37.1004 35.3201 37.1253C35.2982 37.1502 35.2701 37.1688 35.2387 37.1793C35.2072 37.1898 35.1736 37.1917 35.1411 37.185C35.1087 37.1782 35.0786 37.163 35.054 37.1408L27.1509 30.1845L38.8696 21.7283L35.3634 37.0377Z" fill="#515151"/>
</g>
<defs>
<filter id="filter0_d_47_17499" x="0" y="0" width="60" height="60" filterUnits="userSpaceOnUse" color-interpolation-filters="sRGB">
<feFlood flood-opacity="0" result="BackgroundImageFix"/>
<feColorMatrix in="SourceAlpha" type="matrix" values="0 0 0 0 0 0 0 0 0 0 0 0 0 0 0 0 0 0 127 0" result="hardAlpha"/>
<feOffset/>
<feGaussianBlur stdDeviation="7"/>
<feColorMatrix type="matrix" values="0 0 0 0 0 0 0 0 0 0 0 0 0 0 0 0 0 0 0.06 0"/>
<feBlend mode="normal" in2="BackgroundImageFix" result="effect1_dropShadow_47_17499"/>
<feBlend mode="normal" in="SourceGraphic" in2="effect1_dropShadow_47_17499" result="shape"/>
</filter>
<clipPath id="clip0_47_17499">
<rect width="24" height="24" fill="white" transform="translate(18 18)"/>
</clipPath>
</defs>
</svg>
