<svg width="60" height="60" viewBox="0 0 60 60" fill="none" xmlns="http://www.w3.org/2000/svg">
<g filter="url(#filter0_d_47_17500)">
<rect x="14" y="14" width="32" height="32" rx="4" fill="#F4F9FA"/>
<rect x="14.5" y="14.5" width="31" height="31" rx="3.5" stroke="#F4F9FA"/>
</g>
<path d="M30.0004 20.4375C28.3329 20.4378 26.6945 20.8741 25.2477 21.7031C23.801 22.5321 22.5961 23.725 21.7527 25.1635C20.9094 26.602 20.4568 28.236 20.4399 29.9033C20.4231 31.5707 20.8425 33.2135 21.6566 34.6688L20.8316 37.5469C20.7643 37.7721 20.7591 38.0114 20.8167 38.2394C20.8743 38.4673 20.9924 38.6755 21.1587 38.8417C21.3249 39.008 21.5331 39.1261 21.761 39.1837C21.989 39.2413 22.2283 39.2361 22.4535 39.1688L25.3316 38.3438C26.6069 39.0578 28.0289 39.4699 29.4883 39.5486C30.9478 39.6273 32.4058 39.3704 33.7505 38.7977C35.0952 38.2249 36.2906 37.3516 37.2451 36.2447C38.1995 35.1378 38.8876 33.8269 39.2563 32.4126C39.6251 30.9983 39.6647 29.5183 39.3722 28.0863C39.0798 26.6544 38.4629 25.3085 37.5691 24.1521C36.6753 22.9957 35.5283 22.0595 34.2162 21.4156C32.9042 20.7717 31.462 20.4371 30.0004 20.4375ZM30.0004 38.4375C28.486 38.4371 26.9996 38.029 25.6973 37.2562C25.6077 37.2085 25.5081 37.1828 25.4066 37.1813C25.3559 37.1782 25.3051 37.1846 25.2566 37.2L22.1441 38.0906C22.1116 38.1007 22.0769 38.1016 22.0438 38.0934C22.0107 38.0852 21.9805 38.0681 21.9564 38.044C21.9323 38.0199 21.9152 37.9897 21.907 37.9566C21.8988 37.9235 21.8997 37.8888 21.9098 37.8563L22.8004 34.7438C22.8214 34.6703 22.8273 34.5934 22.8176 34.5176C22.8079 34.4419 22.7829 34.3689 22.7441 34.3031C21.7947 32.7018 21.4015 30.8314 21.6258 28.9834C21.8501 27.1353 22.6794 25.4133 23.9843 24.0856C25.2892 22.7579 26.9966 21.899 28.8406 21.6428C30.6845 21.3866 32.5614 21.7474 34.1789 22.669C35.7964 23.5906 37.0637 25.0212 37.7834 26.7381C38.503 28.455 38.6347 30.3617 38.1579 32.1612C37.681 33.9608 36.6224 35.5521 35.147 36.6873C33.6715 37.8225 31.862 38.4378 30.0004 38.4375ZM34.8285 31.575L32.9066 30.4781C32.7044 30.364 32.4754 30.3056 32.2432 30.3089C32.0109 30.3122 31.7837 30.3771 31.5848 30.4969L30.3848 31.2188C29.7028 30.8558 29.1446 30.2976 28.7816 29.6156L29.5035 28.4156C29.6233 28.2167 29.6882 27.9895 29.6915 27.7572C29.6948 27.525 29.6364 27.296 29.5223 27.0938L28.4254 25.1719C28.3189 24.9874 28.1659 24.8341 27.9817 24.7271C27.7974 24.6202 27.5884 24.5635 27.3754 24.5625C26.5316 24.5625 25.7223 24.897 25.1248 25.4928C24.5273 26.0885 24.1904 26.8969 24.1879 27.7406C24.1867 28.8002 24.3943 29.8496 24.7989 30.8289C25.2036 31.8082 25.7972 32.6981 26.546 33.4477C27.2948 34.1974 28.184 34.7921 29.1628 35.1979C30.1416 35.6036 31.1908 35.8125 32.2504 35.8125H32.2598C33.1035 35.81 33.9119 35.4731 34.5076 34.8756C35.1034 34.2781 35.4379 33.4688 35.4379 32.625C35.4369 32.412 35.3802 32.203 35.2732 32.0187C35.1663 31.8345 35.013 31.6815 34.8285 31.575ZM32.2598 34.6875H32.2504C30.4096 34.685 28.645 33.952 27.3443 32.6495C26.0435 31.347 25.3129 29.5814 25.3129 27.7406C25.3154 27.1952 25.5338 26.673 25.9203 26.2883C26.3068 25.9035 26.83 25.6875 27.3754 25.6875C27.4043 25.6899 27.4312 25.7033 27.4504 25.725L28.5473 27.6469C28.5623 27.6762 28.5694 27.709 28.5677 27.7419C28.5661 27.7748 28.5558 27.8067 28.5379 27.8344L27.666 29.3063C27.6167 29.382 27.5873 29.469 27.5808 29.5592C27.5742 29.6494 27.5906 29.7398 27.6285 29.8219C28.141 30.9531 29.0473 31.8594 30.1785 32.3719C30.2606 32.4098 30.351 32.4262 30.4412 32.4196C30.5313 32.4131 30.6184 32.3837 30.6941 32.3344L32.166 31.4625C32.1937 31.4446 32.2256 31.4343 32.2585 31.4327C32.2914 31.431 32.3242 31.4381 32.3535 31.4531L34.2754 32.55C34.2971 32.5692 34.3105 32.5961 34.3129 32.625C34.3129 33.1704 34.0969 33.6936 33.7121 34.0801C33.3274 34.4666 32.8052 34.685 32.2598 34.6875Z" fill="#515151"/>
<defs>
<filter id="filter0_d_47_17500" x="0" y="0" width="60" height="60" filterUnits="userSpaceOnUse" color-interpolation-filters="sRGB">
<feFlood flood-opacity="0" result="BackgroundImageFix"/>
<feColorMatrix in="SourceAlpha" type="matrix" values="0 0 0 0 0 0 0 0 0 0 0 0 0 0 0 0 0 0 127 0" result="hardAlpha"/>
<feOffset/>
<feGaussianBlur stdDeviation="7"/>
<feColorMatrix type="matrix" values="0 0 0 0 0 0 0 0 0 0 0 0 0 0 0 0 0 0 0.06 0"/>
<feBlend mode="normal" in2="BackgroundImageFix" result="effect1_dropShadow_47_17500"/>
<feBlend mode="normal" in="SourceGraphic" in2="effect1_dropShadow_47_17500" result="shape"/>
</filter>
</defs>
</svg>
