<svg width="163" height="91" viewBox="0 0 163 91" fill="none" xmlns="http://www.w3.org/2000/svg">
<circle cx="7.33577" cy="7.33577" r="7.33577" transform="matrix(0 1 1 0 1.26953 75.8848)" fill="#E7EDF1"/>
<circle cx="7.33577" cy="7.33577" r="7.33577" transform="matrix(0 1 1 0 0.636719 39.2129)" fill="#E7EDF1"/>
<circle cx="7.33577" cy="7.33577" r="7.33577" transform="matrix(0 1 1 0 0 2.54102)" fill="#E7EDF1"/>
<circle cx="7.33577" cy="7.33577" r="7.33577" transform="matrix(0 1 1 0 37.9453 75.25)" fill="#E7EDF1"/>
<circle cx="7.33577" cy="7.33577" r="7.33577" transform="matrix(0 1 1 0 37.3086 38.5781)" fill="#E7EDF1"/>
<circle cx="7.33577" cy="7.33577" r="7.33577" transform="matrix(0 1 1 0 36.6719 1.9043)" fill="#E7EDF1"/>
<circle cx="7.33577" cy="7.33577" r="7.33577" transform="matrix(0 1 1 0 74.6172 74.6152)" fill="#E7EDF1"/>
<circle cx="7.33577" cy="7.33577" r="7.33577" transform="matrix(0 1 1 0 73.9844 37.9434)" fill="#E7EDF1"/>
<circle cx="7.33577" cy="7.33577" r="7.33577" transform="matrix(0 1 1 0 73.3477 1.26953)" fill="#E7EDF1"/>
<circle cx="7.33577" cy="7.33577" r="7.33577" transform="matrix(0 1 1 0 111.289 73.9785)" fill="#E7EDF1"/>
<circle cx="7.33577" cy="7.33577" r="7.33577" transform="matrix(0 1 1 0 110.656 37.3066)" fill="#E7EDF1"/>
<circle cx="7.33577" cy="7.33577" r="7.33577" transform="matrix(0 1 1 0 110.02 0.634766)" fill="#E7EDF1"/>
<circle cx="7.33577" cy="7.33577" r="7.33577" transform="matrix(0 1 1 0 147.965 73.3438)" fill="#E7EDF1"/>
<circle cx="7.33577" cy="7.33577" r="7.33577" transform="matrix(0 1 1 0 147.328 36.6719)" fill="#E7EDF1"/>
<circle cx="7.33577" cy="7.33577" r="7.33577" transform="matrix(0 1 1 0 146.695 0)" fill="#E7EDF1"/>
</svg>
