<svg width="91" height="164" viewBox="0 0 91 164" fill="none" xmlns="http://www.w3.org/2000/svg">
<circle cx="7.33577" cy="7.33577" r="7.33577" transform="matrix(1 0 0 -1 75.9258 162.327)" fill="#E7EDF1"/>
<circle cx="7.33577" cy="7.33577" r="7.33577" transform="matrix(1 0 0 -1 39.2539 162.96)" fill="#E7EDF1"/>
<circle cx="7.33577" cy="7.33577" r="7.33577" transform="matrix(1 0 0 -1 2.58203 163.596)" fill="#E7EDF1"/>
<circle cx="7.33577" cy="7.33577" r="7.33577" transform="matrix(1 0 0 -1 75.291 125.651)" fill="#E7EDF1"/>
<circle cx="7.33577" cy="7.33577" r="7.33577" transform="matrix(1 0 0 -1 38.6191 126.288)" fill="#E7EDF1"/>
<circle cx="7.33577" cy="7.33577" r="7.33577" transform="matrix(1 0 0 -1 1.94531 126.924)" fill="#E7EDF1"/>
<circle cx="7.33577" cy="7.33577" r="7.33577" transform="matrix(1 0 0 -1 74.6562 88.9791)" fill="#E7EDF1"/>
<circle cx="7.33577" cy="7.33577" r="7.33577" transform="matrix(1 0 0 -1 37.9844 89.6119)" fill="#E7EDF1"/>
<circle cx="7.33577" cy="7.33577" r="7.33577" transform="matrix(1 0 0 -1 1.31055 90.2487)" fill="#E7EDF1"/>
<circle cx="7.33577" cy="7.33577" r="7.33577" transform="matrix(1 0 0 -1 74.0195 52.3073)" fill="#E7EDF1"/>
<circle cx="7.33577" cy="7.33577" r="7.33577" transform="matrix(1 0 0 -1 37.3477 52.9401)" fill="#E7EDF1"/>
<circle cx="7.33577" cy="7.33577" r="7.33577" transform="matrix(1 0 0 -1 0.675781 53.5768)" fill="#E7EDF1"/>
<circle cx="7.33577" cy="7.33577" r="7.33577" transform="matrix(1 0 0 -1 73.3848 15.6315)" fill="#E7EDF1"/>
<circle cx="7.33577" cy="7.33577" r="7.33577" transform="matrix(1 0 0 -1 36.7129 16.2682)" fill="#E7EDF1"/>
<circle cx="7.33577" cy="7.33577" r="7.33577" transform="matrix(1 0 0 -1 0.0410156 16.901)" fill="#E7EDF1"/>
</svg>
