<svg width="24" height="25" viewBox="0 0 24 25" fill="none" xmlns="http://www.w3.org/2000/svg">
<path d="M12.5 5.73636C11.7572 5.73636 11.031 5.97949 10.4134 6.435C9.79574 6.89051 9.31435 7.53794 9.03008 8.29542C8.74581 9.0529 8.67143 9.88642 8.81635 10.6906C8.96127 11.4947 9.31898 12.2333 9.84424 12.8131C10.3695 13.3928 11.0387 13.7877 11.7673 13.9476C12.4958 14.1076 13.251 14.0255 13.9373 13.7117C14.6236 13.398 15.2102 12.8666 15.6228 12.1849C16.0355 11.5032 16.2558 10.7017 16.2558 9.88182C16.2558 8.78238 15.8601 7.72796 15.1558 6.95054C14.4514 6.17312 13.4961 5.73636 12.5 5.73636ZM12.5 12.7182C11.9917 12.7182 11.4949 12.5518 11.0723 12.2402C10.6497 11.9285 10.3203 11.4855 10.1258 10.9672C9.93134 10.449 9.88046 9.87867 9.97961 9.32847C10.0788 8.77827 10.3235 8.27288 10.6829 7.87621C11.0423 7.47953 11.5002 7.2094 11.9987 7.09995C12.4971 6.99051 13.0138 7.04668 13.4834 7.26136C13.953 7.47604 14.3543 7.83958 14.6367 8.30602C14.9191 8.77246 15.0698 9.32084 15.0698 9.88182C15.0672 10.6332 14.7956 11.353 14.3142 11.8843C13.8329 12.4156 13.1807 12.7153 12.5 12.7182ZM12.5 0.5C10.2465 0.502887 8.08597 1.49225 6.49248 3.25106C4.89899 5.00987 4.00262 7.39449 4 9.88182C4 13.2527 5.42326 16.8309 8.10174 20.2345C9.30962 21.7813 10.6724 23.172 12.164 24.38C12.2623 24.4567 12.3795 24.4986 12.5 24.5C12.6233 24.4969 12.7432 24.4553 12.8459 24.38C14.3307 23.1668 15.6897 21.7766 16.8983 20.2345C19.5866 16.8309 21 13.2527 21 9.88182C20.9974 7.39449 20.101 5.00987 18.5075 3.25106C16.914 1.49225 14.7535 0.502887 12.5 0.5ZM12.5 23.0273C11.0174 21.7618 5.18605 16.3836 5.18605 9.88182C5.18605 7.7408 5.95662 5.68747 7.32825 4.17354C8.69989 2.65961 10.5602 1.80909 12.5 1.80909C14.4398 1.80909 16.3001 2.65961 17.6717 4.17354C19.0434 5.68747 19.814 7.7408 19.814 9.88182C19.814 16.3836 13.9826 21.7618 12.5 23.0273Z" fill="#515151"/>
</svg>
