<svg width="184" height="351" viewBox="0 0 184 351" fill="none" xmlns="http://www.w3.org/2000/svg">
<circle cx="2.55556" cy="2.55556" r="2.55556" fill="#344EA2" fill-opacity="0.3"/>
<circle cx="2.55556" cy="181.445" r="2.55556" fill="#344EA2" fill-opacity="0.3"/>
<circle cx="2.55556" cy="15.3335" r="2.55556" fill="#344EA2" fill-opacity="0.3"/>
<circle cx="2.55556" cy="194.223" r="2.55556" fill="#344EA2" fill-opacity="0.3"/>
<circle cx="2.55556" cy="28.1112" r="2.55556" fill="#344EA2" fill-opacity="0.3"/>
<circle cx="2.55556" cy="207" r="2.55556" fill="#344EA2" fill-opacity="0.3"/>
<circle cx="2.55556" cy="40.8889" r="2.55556" fill="#344EA2" fill-opacity="0.3"/>
<circle cx="2.55556" cy="219.778" r="2.55556" fill="#344EA2" fill-opacity="0.3"/>
<circle cx="2.55556" cy="53.6668" r="2.55556" fill="#344EA2" fill-opacity="0.3"/>
<circle cx="2.55556" cy="232.556" r="2.55556" fill="#344EA2" fill-opacity="0.3"/>
<circle cx="2.55556" cy="66.4445" r="2.55556" fill="#344EA2" fill-opacity="0.3"/>
<circle cx="2.55556" cy="245.334" r="2.55556" fill="#344EA2" fill-opacity="0.3"/>
<circle cx="2.55556" cy="79.2224" r="2.55556" fill="#344EA2" fill-opacity="0.3"/>
<circle cx="2.55556" cy="258.111" r="2.55556" fill="#344EA2" fill-opacity="0.3"/>
<circle cx="2.55556" cy="92.0001" r="2.55556" fill="#344EA2" fill-opacity="0.3"/>
<circle cx="2.55556" cy="270.889" r="2.55556" fill="#344EA2" fill-opacity="0.3"/>
<circle cx="2.55556" cy="104.778" r="2.55556" fill="#344EA2" fill-opacity="0.3"/>
<circle cx="2.55556" cy="283.667" r="2.55556" fill="#344EA2" fill-opacity="0.3"/>
<circle cx="2.55556" cy="117.556" r="2.55556" fill="#344EA2" fill-opacity="0.3"/>
<circle cx="2.55556" cy="296.445" r="2.55556" fill="#344EA2" fill-opacity="0.3"/>
<circle cx="2.55556" cy="130.334" r="2.55556" fill="#344EA2" fill-opacity="0.3"/>
<circle cx="2.55556" cy="309.223" r="2.55556" fill="#344EA2" fill-opacity="0.3"/>
<circle cx="2.55556" cy="143.111" r="2.55556" fill="#344EA2" fill-opacity="0.3"/>
<circle cx="2.55556" cy="322.001" r="2.55556" fill="#344EA2" fill-opacity="0.3"/>
<circle cx="2.55556" cy="155.889" r="2.55556" fill="#344EA2" fill-opacity="0.3"/>
<circle cx="2.55556" cy="334.778" r="2.55556" fill="#344EA2" fill-opacity="0.3"/>
<circle cx="2.55556" cy="168.667" r="2.55556" fill="#344EA2" fill-opacity="0.3"/>
<circle cx="2.55556" cy="347.556" r="2.55556" fill="#344EA2" fill-opacity="0.3"/>
<circle cx="15.3329" cy="2.55556" r="2.55556" fill="#344EA2" fill-opacity="0.3"/>
<circle cx="15.3329" cy="181.445" r="2.55556" fill="#344EA2" fill-opacity="0.3"/>
<circle cx="15.3329" cy="15.3335" r="2.55556" fill="#344EA2" fill-opacity="0.3"/>
<circle cx="15.3329" cy="194.223" r="2.55556" fill="#344EA2" fill-opacity="0.3"/>
<circle cx="15.3329" cy="28.1111" r="2.55556" fill="#344EA2" fill-opacity="0.3"/>
<circle cx="15.3329" cy="207" r="2.55556" fill="#344EA2" fill-opacity="0.3"/>
<circle cx="15.3329" cy="40.8889" r="2.55556" fill="#344EA2" fill-opacity="0.3"/>
<circle cx="15.3329" cy="219.778" r="2.55556" fill="#344EA2" fill-opacity="0.3"/>
<circle cx="15.3329" cy="53.6668" r="2.55556" fill="#344EA2" fill-opacity="0.3"/>
<circle cx="15.3329" cy="232.556" r="2.55556" fill="#344EA2" fill-opacity="0.3"/>
<circle cx="15.3329" cy="66.4446" r="2.55556" fill="#344EA2" fill-opacity="0.3"/>
<circle cx="15.3329" cy="245.334" r="2.55556" fill="#344EA2" fill-opacity="0.3"/>
<circle cx="15.3329" cy="79.2223" r="2.55556" fill="#344EA2" fill-opacity="0.3"/>
<circle cx="15.3329" cy="258.111" r="2.55556" fill="#344EA2" fill-opacity="0.3"/>
<circle cx="15.3329" cy="92.0001" r="2.55556" fill="#344EA2" fill-opacity="0.3"/>
<circle cx="15.3329" cy="270.889" r="2.55556" fill="#344EA2" fill-opacity="0.3"/>
<circle cx="15.3329" cy="104.778" r="2.55556" fill="#344EA2" fill-opacity="0.3"/>
<circle cx="15.3329" cy="283.667" r="2.55556" fill="#344EA2" fill-opacity="0.3"/>
<circle cx="15.3329" cy="117.556" r="2.55556" fill="#344EA2" fill-opacity="0.3"/>
<circle cx="15.3329" cy="296.445" r="2.55556" fill="#344EA2" fill-opacity="0.3"/>
<circle cx="15.3329" cy="130.334" r="2.55556" fill="#344EA2" fill-opacity="0.3"/>
<circle cx="15.3329" cy="309.223" r="2.55556" fill="#344EA2" fill-opacity="0.3"/>
<circle cx="15.3329" cy="143.111" r="2.55556" fill="#344EA2" fill-opacity="0.3"/>
<circle cx="15.3329" cy="322.001" r="2.55556" fill="#344EA2" fill-opacity="0.3"/>
<circle cx="15.3329" cy="155.889" r="2.55556" fill="#344EA2" fill-opacity="0.3"/>
<circle cx="15.3329" cy="334.778" r="2.55556" fill="#344EA2" fill-opacity="0.3"/>
<circle cx="15.3329" cy="168.667" r="2.55556" fill="#344EA2" fill-opacity="0.3"/>
<circle cx="15.3329" cy="347.556" r="2.55556" fill="#344EA2" fill-opacity="0.3"/>
<circle cx="28.1122" cy="2.55556" r="2.55556" fill="#344EA2" fill-opacity="0.3"/>
<circle cx="28.1122" cy="181.445" r="2.55556" fill="#344EA2" fill-opacity="0.3"/>
<circle cx="28.1122" cy="15.3335" r="2.55556" fill="#344EA2" fill-opacity="0.3"/>
<circle cx="28.1122" cy="194.223" r="2.55556" fill="#344EA2" fill-opacity="0.3"/>
<circle cx="28.1122" cy="28.1112" r="2.55556" fill="#344EA2" fill-opacity="0.3"/>
<circle cx="28.1122" cy="207" r="2.55556" fill="#344EA2" fill-opacity="0.3"/>
<circle cx="28.1122" cy="40.8889" r="2.55556" fill="#344EA2" fill-opacity="0.3"/>
<circle cx="28.1122" cy="219.778" r="2.55556" fill="#344EA2" fill-opacity="0.3"/>
<circle cx="28.1122" cy="53.6668" r="2.55556" fill="#344EA2" fill-opacity="0.3"/>
<circle cx="28.1122" cy="232.556" r="2.55556" fill="#344EA2" fill-opacity="0.3"/>
<circle cx="28.1122" cy="66.4445" r="2.55556" fill="#344EA2" fill-opacity="0.3"/>
<circle cx="28.1122" cy="245.334" r="2.55556" fill="#344EA2" fill-opacity="0.3"/>
<circle cx="28.1122" cy="79.2223" r="2.55556" fill="#344EA2" fill-opacity="0.3"/>
<circle cx="28.1122" cy="258.111" r="2.55556" fill="#344EA2" fill-opacity="0.3"/>
<circle cx="28.1122" cy="92.0001" r="2.55556" fill="#344EA2" fill-opacity="0.3"/>
<circle cx="28.1122" cy="270.889" r="2.55556" fill="#344EA2" fill-opacity="0.3"/>
<circle cx="28.1122" cy="104.778" r="2.55556" fill="#344EA2" fill-opacity="0.3"/>
<circle cx="28.1122" cy="283.667" r="2.55556" fill="#344EA2" fill-opacity="0.3"/>
<circle cx="28.1122" cy="117.556" r="2.55556" fill="#344EA2" fill-opacity="0.3"/>
<circle cx="28.1122" cy="296.445" r="2.55556" fill="#344EA2" fill-opacity="0.3"/>
<circle cx="28.1122" cy="130.334" r="2.55556" fill="#344EA2" fill-opacity="0.3"/>
<circle cx="28.1122" cy="309.223" r="2.55556" fill="#344EA2" fill-opacity="0.3"/>
<circle cx="28.1122" cy="143.111" r="2.55556" fill="#344EA2" fill-opacity="0.3"/>
<circle cx="28.1122" cy="322.001" r="2.55556" fill="#344EA2" fill-opacity="0.3"/>
<circle cx="28.1122" cy="155.889" r="2.55556" fill="#344EA2" fill-opacity="0.3"/>
<circle cx="28.1122" cy="334.778" r="2.55556" fill="#344EA2" fill-opacity="0.3"/>
<circle cx="28.1122" cy="168.667" r="2.55556" fill="#344EA2" fill-opacity="0.3"/>
<circle cx="28.1122" cy="347.556" r="2.55556" fill="#344EA2" fill-opacity="0.3"/>
<circle cx="40.8895" cy="2.55556" r="2.55556" fill="#344EA2" fill-opacity="0.3"/>
<circle cx="40.8895" cy="181.445" r="2.55556" fill="#344EA2" fill-opacity="0.3"/>
<circle cx="40.8895" cy="15.3335" r="2.55556" fill="#344EA2" fill-opacity="0.3"/>
<circle cx="40.8895" cy="194.223" r="2.55556" fill="#344EA2" fill-opacity="0.3"/>
<circle cx="40.8895" cy="28.1111" r="2.55556" fill="#344EA2" fill-opacity="0.3"/>
<circle cx="40.8895" cy="207" r="2.55556" fill="#344EA2" fill-opacity="0.3"/>
<circle cx="40.8895" cy="40.8889" r="2.55556" fill="#344EA2" fill-opacity="0.3"/>
<circle cx="40.8895" cy="219.778" r="2.55556" fill="#344EA2" fill-opacity="0.3"/>
<circle cx="40.8895" cy="53.6668" r="2.55556" fill="#344EA2" fill-opacity="0.3"/>
<circle cx="40.8895" cy="232.556" r="2.55556" fill="#344EA2" fill-opacity="0.3"/>
<circle cx="40.8895" cy="66.4446" r="2.55556" fill="#344EA2" fill-opacity="0.3"/>
<circle cx="40.8895" cy="245.334" r="2.55556" fill="#344EA2" fill-opacity="0.3"/>
<circle cx="40.8895" cy="79.2223" r="2.55556" fill="#344EA2" fill-opacity="0.3"/>
<circle cx="40.8895" cy="258.111" r="2.55556" fill="#344EA2" fill-opacity="0.3"/>
<circle cx="40.8895" cy="92.0001" r="2.55556" fill="#344EA2" fill-opacity="0.3"/>
<circle cx="40.8895" cy="270.889" r="2.55556" fill="#344EA2" fill-opacity="0.3"/>
<circle cx="40.8895" cy="104.778" r="2.55556" fill="#344EA2" fill-opacity="0.3"/>
<circle cx="40.8895" cy="283.667" r="2.55556" fill="#344EA2" fill-opacity="0.3"/>
<circle cx="40.8895" cy="117.556" r="2.55556" fill="#344EA2" fill-opacity="0.3"/>
<circle cx="40.8895" cy="296.445" r="2.55556" fill="#344EA2" fill-opacity="0.3"/>
<circle cx="40.8895" cy="130.334" r="2.55556" fill="#344EA2" fill-opacity="0.3"/>
<circle cx="40.8895" cy="309.223" r="2.55556" fill="#344EA2" fill-opacity="0.3"/>
<circle cx="40.8895" cy="143.111" r="2.55556" fill="#344EA2" fill-opacity="0.3"/>
<circle cx="40.8895" cy="322.001" r="2.55556" fill="#344EA2" fill-opacity="0.3"/>
<circle cx="40.8895" cy="155.889" r="2.55556" fill="#344EA2" fill-opacity="0.3"/>
<circle cx="40.8895" cy="334.778" r="2.55556" fill="#344EA2" fill-opacity="0.3"/>
<circle cx="40.8895" cy="168.667" r="2.55556" fill="#344EA2" fill-opacity="0.3"/>
<circle cx="40.8895" cy="347.556" r="2.55556" fill="#344EA2" fill-opacity="0.3"/>
<circle cx="53.6669" cy="2.55556" r="2.55556" fill="#344EA2" fill-opacity="0.3"/>
<circle cx="53.6669" cy="181.445" r="2.55556" fill="#344EA2" fill-opacity="0.3"/>
<circle cx="53.6669" cy="15.3335" r="2.55556" fill="#344EA2" fill-opacity="0.3"/>
<circle cx="53.6669" cy="194.223" r="2.55556" fill="#344EA2" fill-opacity="0.3"/>
<circle cx="53.6669" cy="28.1111" r="2.55556" fill="#344EA2" fill-opacity="0.3"/>
<circle cx="53.6669" cy="207" r="2.55556" fill="#344EA2" fill-opacity="0.3"/>
<circle cx="53.6669" cy="40.8889" r="2.55556" fill="#344EA2" fill-opacity="0.3"/>
<circle cx="53.6669" cy="219.778" r="2.55556" fill="#344EA2" fill-opacity="0.3"/>
<circle cx="53.6669" cy="53.6668" r="2.55556" fill="#344EA2" fill-opacity="0.3"/>
<circle cx="53.6669" cy="232.556" r="2.55556" fill="#344EA2" fill-opacity="0.3"/>
<circle cx="53.6669" cy="66.4446" r="2.55556" fill="#344EA2" fill-opacity="0.3"/>
<circle cx="53.6669" cy="245.334" r="2.55556" fill="#344EA2" fill-opacity="0.3"/>
<circle cx="53.6669" cy="79.2223" r="2.55556" fill="#344EA2" fill-opacity="0.3"/>
<circle cx="53.6669" cy="258.111" r="2.55556" fill="#344EA2" fill-opacity="0.3"/>
<circle cx="53.6669" cy="92.0001" r="2.55556" fill="#344EA2" fill-opacity="0.3"/>
<circle cx="53.6669" cy="270.889" r="2.55556" fill="#344EA2" fill-opacity="0.3"/>
<circle cx="53.6669" cy="104.778" r="2.55556" fill="#344EA2" fill-opacity="0.3"/>
<circle cx="53.6669" cy="283.667" r="2.55556" fill="#344EA2" fill-opacity="0.3"/>
<circle cx="53.6669" cy="117.556" r="2.55556" fill="#344EA2" fill-opacity="0.3"/>
<circle cx="53.6669" cy="296.445" r="2.55556" fill="#344EA2" fill-opacity="0.3"/>
<circle cx="53.6669" cy="130.334" r="2.55556" fill="#344EA2" fill-opacity="0.3"/>
<circle cx="53.6669" cy="309.223" r="2.55556" fill="#344EA2" fill-opacity="0.3"/>
<circle cx="53.6669" cy="143.111" r="2.55556" fill="#344EA2" fill-opacity="0.3"/>
<circle cx="53.6669" cy="322.001" r="2.55556" fill="#344EA2" fill-opacity="0.3"/>
<circle cx="53.6669" cy="155.889" r="2.55556" fill="#344EA2" fill-opacity="0.3"/>
<circle cx="53.6669" cy="334.778" r="2.55556" fill="#344EA2" fill-opacity="0.3"/>
<circle cx="53.6669" cy="168.667" r="2.55556" fill="#344EA2" fill-opacity="0.3"/>
<circle cx="53.6669" cy="347.556" r="2.55556" fill="#344EA2" fill-opacity="0.3"/>
<circle cx="66.4442" cy="2.55556" r="2.55556" fill="#344EA2" fill-opacity="0.3"/>
<circle cx="66.4442" cy="181.445" r="2.55556" fill="#344EA2" fill-opacity="0.3"/>
<circle cx="66.4442" cy="15.3335" r="2.55556" fill="#344EA2" fill-opacity="0.3"/>
<circle cx="66.4442" cy="194.223" r="2.55556" fill="#344EA2" fill-opacity="0.3"/>
<circle cx="66.4442" cy="28.1112" r="2.55556" fill="#344EA2" fill-opacity="0.3"/>
<circle cx="66.4442" cy="207" r="2.55556" fill="#344EA2" fill-opacity="0.3"/>
<circle cx="66.4442" cy="40.8889" r="2.55556" fill="#344EA2" fill-opacity="0.3"/>
<circle cx="66.4442" cy="219.778" r="2.55556" fill="#344EA2" fill-opacity="0.3"/>
<circle cx="66.4442" cy="53.6668" r="2.55556" fill="#344EA2" fill-opacity="0.3"/>
<circle cx="66.4442" cy="232.556" r="2.55556" fill="#344EA2" fill-opacity="0.3"/>
<circle cx="66.4442" cy="66.4445" r="2.55556" fill="#344EA2" fill-opacity="0.3"/>
<circle cx="66.4442" cy="245.334" r="2.55556" fill="#344EA2" fill-opacity="0.3"/>
<circle cx="66.4442" cy="79.2224" r="2.55556" fill="#344EA2" fill-opacity="0.3"/>
<circle cx="66.4442" cy="258.111" r="2.55556" fill="#344EA2" fill-opacity="0.3"/>
<circle cx="66.4442" cy="92.0001" r="2.55556" fill="#344EA2" fill-opacity="0.3"/>
<circle cx="66.4442" cy="270.889" r="2.55556" fill="#344EA2" fill-opacity="0.3"/>
<circle cx="66.4442" cy="104.778" r="2.55556" fill="#344EA2" fill-opacity="0.3"/>
<circle cx="66.4442" cy="283.667" r="2.55556" fill="#344EA2" fill-opacity="0.3"/>
<circle cx="66.4442" cy="117.556" r="2.55556" fill="#344EA2" fill-opacity="0.3"/>
<circle cx="66.4442" cy="296.445" r="2.55556" fill="#344EA2" fill-opacity="0.3"/>
<circle cx="66.4442" cy="130.334" r="2.55556" fill="#344EA2" fill-opacity="0.3"/>
<circle cx="66.4442" cy="309.223" r="2.55556" fill="#344EA2" fill-opacity="0.3"/>
<circle cx="66.4442" cy="143.111" r="2.55556" fill="#344EA2" fill-opacity="0.3"/>
<circle cx="66.4442" cy="322.001" r="2.55556" fill="#344EA2" fill-opacity="0.3"/>
<circle cx="66.4442" cy="155.889" r="2.55556" fill="#344EA2" fill-opacity="0.3"/>
<circle cx="66.4442" cy="334.778" r="2.55556" fill="#344EA2" fill-opacity="0.3"/>
<circle cx="66.4442" cy="168.667" r="2.55556" fill="#344EA2" fill-opacity="0.3"/>
<circle cx="66.4442" cy="347.556" r="2.55556" fill="#344EA2" fill-opacity="0.3"/>
<circle cx="79.2235" cy="2.55556" r="2.55556" fill="#344EA2" fill-opacity="0.3"/>
<circle cx="79.2235" cy="181.445" r="2.55556" fill="#344EA2" fill-opacity="0.3"/>
<circle cx="79.2235" cy="15.3335" r="2.55556" fill="#344EA2" fill-opacity="0.3"/>
<circle cx="79.2235" cy="194.223" r="2.55556" fill="#344EA2" fill-opacity="0.3"/>
<circle cx="79.2235" cy="28.1111" r="2.55556" fill="#344EA2" fill-opacity="0.3"/>
<circle cx="79.2235" cy="207" r="2.55556" fill="#344EA2" fill-opacity="0.3"/>
<circle cx="79.2235" cy="40.8889" r="2.55556" fill="#344EA2" fill-opacity="0.3"/>
<circle cx="79.2235" cy="219.778" r="2.55556" fill="#344EA2" fill-opacity="0.3"/>
<circle cx="79.2235" cy="53.6668" r="2.55556" fill="#344EA2" fill-opacity="0.3"/>
<circle cx="79.2235" cy="232.556" r="2.55556" fill="#344EA2" fill-opacity="0.3"/>
<circle cx="79.2235" cy="66.4446" r="2.55556" fill="#344EA2" fill-opacity="0.3"/>
<circle cx="79.2235" cy="245.334" r="2.55556" fill="#344EA2" fill-opacity="0.3"/>
<circle cx="79.2235" cy="79.2223" r="2.55556" fill="#344EA2" fill-opacity="0.3"/>
<circle cx="79.2235" cy="258.111" r="2.55556" fill="#344EA2" fill-opacity="0.3"/>
<circle cx="79.2235" cy="92.0001" r="2.55556" fill="#344EA2" fill-opacity="0.3"/>
<circle cx="79.2235" cy="270.889" r="2.55556" fill="#344EA2" fill-opacity="0.3"/>
<circle cx="79.2235" cy="104.778" r="2.55556" fill="#344EA2" fill-opacity="0.3"/>
<circle cx="79.2235" cy="283.667" r="2.55556" fill="#344EA2" fill-opacity="0.3"/>
<circle cx="79.2235" cy="117.556" r="2.55556" fill="#344EA2" fill-opacity="0.3"/>
<circle cx="79.2235" cy="296.445" r="2.55556" fill="#344EA2" fill-opacity="0.3"/>
<circle cx="79.2235" cy="130.334" r="2.55556" fill="#344EA2" fill-opacity="0.3"/>
<circle cx="79.2235" cy="309.223" r="2.55556" fill="#344EA2" fill-opacity="0.3"/>
<circle cx="79.2235" cy="143.111" r="2.55556" fill="#344EA2" fill-opacity="0.3"/>
<circle cx="79.2235" cy="322.001" r="2.55556" fill="#344EA2" fill-opacity="0.3"/>
<circle cx="79.2235" cy="155.889" r="2.55556" fill="#344EA2" fill-opacity="0.3"/>
<circle cx="79.2235" cy="334.778" r="2.55556" fill="#344EA2" fill-opacity="0.3"/>
<circle cx="79.2235" cy="168.667" r="2.55556" fill="#344EA2" fill-opacity="0.3"/>
<circle cx="79.2235" cy="347.556" r="2.55556" fill="#344EA2" fill-opacity="0.3"/>
<circle cx="91.9989" cy="2.55556" r="2.55556" fill="#344EA2" fill-opacity="0.3"/>
<circle cx="91.9989" cy="181.445" r="2.55556" fill="#344EA2" fill-opacity="0.3"/>
<circle cx="91.9989" cy="15.3335" r="2.55556" fill="#344EA2" fill-opacity="0.3"/>
<circle cx="91.9989" cy="194.223" r="2.55556" fill="#344EA2" fill-opacity="0.3"/>
<circle cx="91.9989" cy="28.1112" r="2.55556" fill="#344EA2" fill-opacity="0.3"/>
<circle cx="91.9989" cy="207" r="2.55556" fill="#344EA2" fill-opacity="0.3"/>
<circle cx="91.9989" cy="40.8889" r="2.55556" fill="#344EA2" fill-opacity="0.3"/>
<circle cx="91.9989" cy="219.778" r="2.55556" fill="#344EA2" fill-opacity="0.3"/>
<circle cx="91.9989" cy="53.6668" r="2.55556" fill="#344EA2" fill-opacity="0.3"/>
<circle cx="91.9989" cy="232.556" r="2.55556" fill="#344EA2" fill-opacity="0.3"/>
<circle cx="91.9989" cy="66.4445" r="2.55556" fill="#344EA2" fill-opacity="0.3"/>
<circle cx="91.9989" cy="245.334" r="2.55556" fill="#344EA2" fill-opacity="0.3"/>
<circle cx="91.9989" cy="79.2223" r="2.55556" fill="#344EA2" fill-opacity="0.3"/>
<circle cx="91.9989" cy="258.111" r="2.55556" fill="#344EA2" fill-opacity="0.3"/>
<circle cx="91.9989" cy="92.0001" r="2.55556" fill="#344EA2" fill-opacity="0.3"/>
<circle cx="91.9989" cy="270.889" r="2.55556" fill="#344EA2" fill-opacity="0.3"/>
<circle cx="91.9989" cy="104.778" r="2.55556" fill="#344EA2" fill-opacity="0.3"/>
<circle cx="91.9989" cy="283.667" r="2.55556" fill="#344EA2" fill-opacity="0.3"/>
<circle cx="91.9989" cy="117.556" r="2.55556" fill="#344EA2" fill-opacity="0.3"/>
<circle cx="91.9989" cy="296.445" r="2.55556" fill="#344EA2" fill-opacity="0.3"/>
<circle cx="91.9989" cy="130.334" r="2.55556" fill="#344EA2" fill-opacity="0.3"/>
<circle cx="91.9989" cy="309.223" r="2.55556" fill="#344EA2" fill-opacity="0.3"/>
<circle cx="91.9989" cy="143.111" r="2.55556" fill="#344EA2" fill-opacity="0.3"/>
<circle cx="91.9989" cy="322.001" r="2.55556" fill="#344EA2" fill-opacity="0.3"/>
<circle cx="91.9989" cy="155.889" r="2.55556" fill="#344EA2" fill-opacity="0.3"/>
<circle cx="91.9989" cy="334.778" r="2.55556" fill="#344EA2" fill-opacity="0.3"/>
<circle cx="91.9989" cy="168.667" r="2.55556" fill="#344EA2" fill-opacity="0.3"/>
<circle cx="91.9989" cy="347.556" r="2.55556" fill="#344EA2" fill-opacity="0.3"/>
<circle cx="104.778" cy="2.55556" r="2.55556" fill="#344EA2" fill-opacity="0.3"/>
<circle cx="104.778" cy="181.445" r="2.55556" fill="#344EA2" fill-opacity="0.3"/>
<circle cx="104.778" cy="15.3335" r="2.55556" fill="#344EA2" fill-opacity="0.3"/>
<circle cx="104.778" cy="194.223" r="2.55556" fill="#344EA2" fill-opacity="0.3"/>
<circle cx="104.778" cy="28.1111" r="2.55556" fill="#344EA2" fill-opacity="0.3"/>
<circle cx="104.778" cy="207" r="2.55556" fill="#344EA2" fill-opacity="0.3"/>
<circle cx="104.778" cy="40.8889" r="2.55556" fill="#344EA2" fill-opacity="0.3"/>
<circle cx="104.778" cy="219.778" r="2.55556" fill="#344EA2" fill-opacity="0.3"/>
<circle cx="104.778" cy="53.6668" r="2.55556" fill="#344EA2" fill-opacity="0.3"/>
<circle cx="104.778" cy="232.556" r="2.55556" fill="#344EA2" fill-opacity="0.3"/>
<circle cx="104.778" cy="66.4446" r="2.55556" fill="#344EA2" fill-opacity="0.3"/>
<circle cx="104.778" cy="245.334" r="2.55556" fill="#344EA2" fill-opacity="0.3"/>
<circle cx="104.778" cy="79.2223" r="2.55556" fill="#344EA2" fill-opacity="0.3"/>
<circle cx="104.778" cy="258.111" r="2.55556" fill="#344EA2" fill-opacity="0.3"/>
<circle cx="104.778" cy="92.0001" r="2.55556" fill="#344EA2" fill-opacity="0.3"/>
<circle cx="104.778" cy="270.889" r="2.55556" fill="#344EA2" fill-opacity="0.3"/>
<circle cx="104.778" cy="104.778" r="2.55556" fill="#344EA2" fill-opacity="0.3"/>
<circle cx="104.778" cy="283.667" r="2.55556" fill="#344EA2" fill-opacity="0.3"/>
<circle cx="104.778" cy="117.556" r="2.55556" fill="#344EA2" fill-opacity="0.3"/>
<circle cx="104.778" cy="296.445" r="2.55556" fill="#344EA2" fill-opacity="0.3"/>
<circle cx="104.778" cy="130.334" r="2.55556" fill="#344EA2" fill-opacity="0.3"/>
<circle cx="104.778" cy="309.223" r="2.55556" fill="#344EA2" fill-opacity="0.3"/>
<circle cx="104.778" cy="143.111" r="2.55556" fill="#344EA2" fill-opacity="0.3"/>
<circle cx="104.778" cy="322.001" r="2.55556" fill="#344EA2" fill-opacity="0.3"/>
<circle cx="104.778" cy="155.889" r="2.55556" fill="#344EA2" fill-opacity="0.3"/>
<circle cx="104.778" cy="334.778" r="2.55556" fill="#344EA2" fill-opacity="0.3"/>
<circle cx="104.778" cy="168.667" r="2.55556" fill="#344EA2" fill-opacity="0.3"/>
<circle cx="104.778" cy="347.556" r="2.55556" fill="#344EA2" fill-opacity="0.3"/>
<circle cx="117.556" cy="2.55556" r="2.55556" fill="#344EA2" fill-opacity="0.3"/>
<circle cx="117.556" cy="181.445" r="2.55556" fill="#344EA2" fill-opacity="0.3"/>
<circle cx="117.556" cy="15.3335" r="2.55556" fill="#344EA2" fill-opacity="0.3"/>
<circle cx="117.556" cy="194.223" r="2.55556" fill="#344EA2" fill-opacity="0.3"/>
<circle cx="117.556" cy="28.1112" r="2.55556" fill="#344EA2" fill-opacity="0.3"/>
<circle cx="117.556" cy="207" r="2.55556" fill="#344EA2" fill-opacity="0.3"/>
<circle cx="117.556" cy="40.8889" r="2.55556" fill="#344EA2" fill-opacity="0.3"/>
<circle cx="117.556" cy="219.778" r="2.55556" fill="#344EA2" fill-opacity="0.3"/>
<circle cx="117.556" cy="53.6668" r="2.55556" fill="#344EA2" fill-opacity="0.3"/>
<circle cx="117.556" cy="232.556" r="2.55556" fill="#344EA2" fill-opacity="0.3"/>
<circle cx="117.556" cy="66.4445" r="2.55556" fill="#344EA2" fill-opacity="0.3"/>
<circle cx="117.556" cy="245.334" r="2.55556" fill="#344EA2" fill-opacity="0.3"/>
<circle cx="117.556" cy="79.2224" r="2.55556" fill="#344EA2" fill-opacity="0.3"/>
<circle cx="117.556" cy="258.111" r="2.55556" fill="#344EA2" fill-opacity="0.3"/>
<circle cx="117.556" cy="92.0001" r="2.55556" fill="#344EA2" fill-opacity="0.3"/>
<circle cx="117.556" cy="270.889" r="2.55556" fill="#344EA2" fill-opacity="0.3"/>
<circle cx="117.556" cy="104.778" r="2.55556" fill="#344EA2" fill-opacity="0.3"/>
<circle cx="117.556" cy="283.667" r="2.55556" fill="#344EA2" fill-opacity="0.3"/>
<circle cx="117.556" cy="117.556" r="2.55556" fill="#344EA2" fill-opacity="0.3"/>
<circle cx="117.556" cy="296.445" r="2.55556" fill="#344EA2" fill-opacity="0.3"/>
<circle cx="117.556" cy="130.334" r="2.55556" fill="#344EA2" fill-opacity="0.3"/>
<circle cx="117.556" cy="309.223" r="2.55556" fill="#344EA2" fill-opacity="0.3"/>
<circle cx="117.556" cy="143.111" r="2.55556" fill="#344EA2" fill-opacity="0.3"/>
<circle cx="117.556" cy="322.001" r="2.55556" fill="#344EA2" fill-opacity="0.3"/>
<circle cx="117.556" cy="155.889" r="2.55556" fill="#344EA2" fill-opacity="0.3"/>
<circle cx="117.556" cy="334.778" r="2.55556" fill="#344EA2" fill-opacity="0.3"/>
<circle cx="117.556" cy="168.667" r="2.55556" fill="#344EA2" fill-opacity="0.3"/>
<circle cx="117.556" cy="347.556" r="2.55556" fill="#344EA2" fill-opacity="0.3"/>
<circle cx="130.333" cy="2.55556" r="2.55556" fill="#344EA2" fill-opacity="0.3"/>
<circle cx="130.333" cy="181.445" r="2.55556" fill="#344EA2" fill-opacity="0.3"/>
<circle cx="130.333" cy="15.3335" r="2.55556" fill="#344EA2" fill-opacity="0.3"/>
<circle cx="130.333" cy="194.223" r="2.55556" fill="#344EA2" fill-opacity="0.3"/>
<circle cx="130.333" cy="28.1111" r="2.55556" fill="#344EA2" fill-opacity="0.3"/>
<circle cx="130.333" cy="207" r="2.55556" fill="#344EA2" fill-opacity="0.3"/>
<circle cx="130.333" cy="40.8889" r="2.55556" fill="#344EA2" fill-opacity="0.3"/>
<circle cx="130.333" cy="219.778" r="2.55556" fill="#344EA2" fill-opacity="0.3"/>
<circle cx="130.333" cy="53.6668" r="2.55556" fill="#344EA2" fill-opacity="0.3"/>
<circle cx="130.333" cy="232.556" r="2.55556" fill="#344EA2" fill-opacity="0.3"/>
<circle cx="130.333" cy="66.4446" r="2.55556" fill="#344EA2" fill-opacity="0.3"/>
<circle cx="130.333" cy="245.334" r="2.55556" fill="#344EA2" fill-opacity="0.3"/>
<circle cx="130.333" cy="79.2223" r="2.55556" fill="#344EA2" fill-opacity="0.3"/>
<circle cx="130.333" cy="258.111" r="2.55556" fill="#344EA2" fill-opacity="0.3"/>
<circle cx="130.333" cy="92.0001" r="2.55556" fill="#344EA2" fill-opacity="0.3"/>
<circle cx="130.333" cy="270.889" r="2.55556" fill="#344EA2" fill-opacity="0.3"/>
<circle cx="130.333" cy="104.778" r="2.55556" fill="#344EA2" fill-opacity="0.3"/>
<circle cx="130.333" cy="283.667" r="2.55556" fill="#344EA2" fill-opacity="0.3"/>
<circle cx="130.333" cy="117.556" r="2.55556" fill="#344EA2" fill-opacity="0.3"/>
<circle cx="130.333" cy="296.445" r="2.55556" fill="#344EA2" fill-opacity="0.3"/>
<circle cx="130.333" cy="130.334" r="2.55556" fill="#344EA2" fill-opacity="0.3"/>
<circle cx="130.333" cy="309.223" r="2.55556" fill="#344EA2" fill-opacity="0.3"/>
<circle cx="130.333" cy="143.111" r="2.55556" fill="#344EA2" fill-opacity="0.3"/>
<circle cx="130.333" cy="322.001" r="2.55556" fill="#344EA2" fill-opacity="0.3"/>
<circle cx="130.333" cy="155.889" r="2.55556" fill="#344EA2" fill-opacity="0.3"/>
<circle cx="130.333" cy="334.778" r="2.55556" fill="#344EA2" fill-opacity="0.3"/>
<circle cx="130.333" cy="168.667" r="2.55556" fill="#344EA2" fill-opacity="0.3"/>
<circle cx="130.333" cy="347.556" r="2.55556" fill="#344EA2" fill-opacity="0.3"/>
<circle cx="143.112" cy="2.55556" r="2.55556" fill="#344EA2" fill-opacity="0.3"/>
<circle cx="143.112" cy="181.445" r="2.55556" fill="#344EA2" fill-opacity="0.3"/>
<circle cx="143.112" cy="15.3335" r="2.55556" fill="#344EA2" fill-opacity="0.3"/>
<circle cx="143.112" cy="194.223" r="2.55556" fill="#344EA2" fill-opacity="0.3"/>
<circle cx="143.112" cy="28.1112" r="2.55556" fill="#344EA2" fill-opacity="0.3"/>
<circle cx="143.112" cy="207" r="2.55556" fill="#344EA2" fill-opacity="0.3"/>
<circle cx="143.112" cy="40.8889" r="2.55556" fill="#344EA2" fill-opacity="0.3"/>
<circle cx="143.112" cy="219.778" r="2.55556" fill="#344EA2" fill-opacity="0.3"/>
<circle cx="143.112" cy="53.6668" r="2.55556" fill="#344EA2" fill-opacity="0.3"/>
<circle cx="143.112" cy="232.556" r="2.55556" fill="#344EA2" fill-opacity="0.3"/>
<circle cx="143.112" cy="66.4445" r="2.55556" fill="#344EA2" fill-opacity="0.3"/>
<circle cx="143.112" cy="245.334" r="2.55556" fill="#344EA2" fill-opacity="0.3"/>
<circle cx="143.112" cy="79.2223" r="2.55556" fill="#344EA2" fill-opacity="0.3"/>
<circle cx="143.112" cy="258.111" r="2.55556" fill="#344EA2" fill-opacity="0.3"/>
<circle cx="143.112" cy="92.0001" r="2.55556" fill="#344EA2" fill-opacity="0.3"/>
<circle cx="143.112" cy="270.889" r="2.55556" fill="#344EA2" fill-opacity="0.3"/>
<circle cx="143.112" cy="104.778" r="2.55556" fill="#344EA2" fill-opacity="0.3"/>
<circle cx="143.112" cy="283.667" r="2.55556" fill="#344EA2" fill-opacity="0.3"/>
<circle cx="143.112" cy="117.556" r="2.55556" fill="#344EA2" fill-opacity="0.3"/>
<circle cx="143.112" cy="296.445" r="2.55556" fill="#344EA2" fill-opacity="0.3"/>
<circle cx="143.112" cy="130.334" r="2.55556" fill="#344EA2" fill-opacity="0.3"/>
<circle cx="143.112" cy="309.223" r="2.55556" fill="#344EA2" fill-opacity="0.3"/>
<circle cx="143.112" cy="143.111" r="2.55556" fill="#344EA2" fill-opacity="0.3"/>
<circle cx="143.112" cy="322.001" r="2.55556" fill="#344EA2" fill-opacity="0.3"/>
<circle cx="143.112" cy="155.889" r="2.55556" fill="#344EA2" fill-opacity="0.3"/>
<circle cx="143.112" cy="334.778" r="2.55556" fill="#344EA2" fill-opacity="0.3"/>
<circle cx="143.112" cy="168.667" r="2.55556" fill="#344EA2" fill-opacity="0.3"/>
<circle cx="143.112" cy="347.556" r="2.55556" fill="#344EA2" fill-opacity="0.3"/>
<circle cx="155.89" cy="2.55556" r="2.55556" fill="#344EA2" fill-opacity="0.3"/>
<circle cx="155.89" cy="181.445" r="2.55556" fill="#344EA2" fill-opacity="0.3"/>
<circle cx="155.89" cy="15.3335" r="2.55556" fill="#344EA2" fill-opacity="0.3"/>
<circle cx="155.89" cy="194.223" r="2.55556" fill="#344EA2" fill-opacity="0.3"/>
<circle cx="155.89" cy="28.1111" r="2.55556" fill="#344EA2" fill-opacity="0.3"/>
<circle cx="155.89" cy="207" r="2.55556" fill="#344EA2" fill-opacity="0.3"/>
<circle cx="155.89" cy="40.8889" r="2.55556" fill="#344EA2" fill-opacity="0.3"/>
<circle cx="155.89" cy="219.778" r="2.55556" fill="#344EA2" fill-opacity="0.3"/>
<circle cx="155.89" cy="53.6668" r="2.55556" fill="#344EA2" fill-opacity="0.3"/>
<circle cx="155.89" cy="232.556" r="2.55556" fill="#344EA2" fill-opacity="0.3"/>
<circle cx="155.89" cy="66.4446" r="2.55556" fill="#344EA2" fill-opacity="0.3"/>
<circle cx="155.89" cy="245.334" r="2.55556" fill="#344EA2" fill-opacity="0.3"/>
<circle cx="155.89" cy="79.2223" r="2.55556" fill="#344EA2" fill-opacity="0.3"/>
<circle cx="155.89" cy="258.111" r="2.55556" fill="#344EA2" fill-opacity="0.3"/>
<circle cx="155.89" cy="92.0001" r="2.55556" fill="#344EA2" fill-opacity="0.3"/>
<circle cx="155.89" cy="270.889" r="2.55556" fill="#344EA2" fill-opacity="0.3"/>
<circle cx="155.89" cy="104.778" r="2.55556" fill="#344EA2" fill-opacity="0.3"/>
<circle cx="155.89" cy="283.667" r="2.55556" fill="#344EA2" fill-opacity="0.3"/>
<circle cx="155.89" cy="117.556" r="2.55556" fill="#344EA2" fill-opacity="0.3"/>
<circle cx="155.89" cy="296.445" r="2.55556" fill="#344EA2" fill-opacity="0.3"/>
<circle cx="155.89" cy="130.334" r="2.55556" fill="#344EA2" fill-opacity="0.3"/>
<circle cx="155.89" cy="309.223" r="2.55556" fill="#344EA2" fill-opacity="0.3"/>
<circle cx="155.89" cy="143.111" r="2.55556" fill="#344EA2" fill-opacity="0.3"/>
<circle cx="155.89" cy="322.001" r="2.55556" fill="#344EA2" fill-opacity="0.3"/>
<circle cx="155.89" cy="155.889" r="2.55556" fill="#344EA2" fill-opacity="0.3"/>
<circle cx="155.89" cy="334.778" r="2.55556" fill="#344EA2" fill-opacity="0.3"/>
<circle cx="155.89" cy="168.667" r="2.55556" fill="#344EA2" fill-opacity="0.3"/>
<circle cx="155.89" cy="347.556" r="2.55556" fill="#344EA2" fill-opacity="0.3"/>
<circle cx="168.667" cy="2.55556" r="2.55556" fill="#344EA2" fill-opacity="0.3"/>
<circle cx="168.667" cy="181.445" r="2.55556" fill="#344EA2" fill-opacity="0.3"/>
<circle cx="168.667" cy="15.3335" r="2.55556" fill="#344EA2" fill-opacity="0.3"/>
<circle cx="168.667" cy="194.223" r="2.55556" fill="#344EA2" fill-opacity="0.3"/>
<circle cx="168.667" cy="28.1111" r="2.55556" fill="#344EA2" fill-opacity="0.3"/>
<circle cx="168.667" cy="207" r="2.55556" fill="#344EA2" fill-opacity="0.3"/>
<circle cx="168.667" cy="40.8889" r="2.55556" fill="#344EA2" fill-opacity="0.3"/>
<circle cx="168.667" cy="219.778" r="2.55556" fill="#344EA2" fill-opacity="0.3"/>
<circle cx="168.667" cy="53.6668" r="2.55556" fill="#344EA2" fill-opacity="0.3"/>
<circle cx="168.667" cy="232.556" r="2.55556" fill="#344EA2" fill-opacity="0.3"/>
<circle cx="168.667" cy="66.4446" r="2.55556" fill="#344EA2" fill-opacity="0.3"/>
<circle cx="168.667" cy="245.334" r="2.55556" fill="#344EA2" fill-opacity="0.3"/>
<circle cx="168.667" cy="79.2223" r="2.55556" fill="#344EA2" fill-opacity="0.3"/>
<circle cx="168.667" cy="258.111" r="2.55556" fill="#344EA2" fill-opacity="0.3"/>
<circle cx="168.667" cy="92.0001" r="2.55556" fill="#344EA2" fill-opacity="0.3"/>
<circle cx="168.667" cy="270.889" r="2.55556" fill="#344EA2" fill-opacity="0.3"/>
<circle cx="168.667" cy="104.778" r="2.55556" fill="#344EA2" fill-opacity="0.3"/>
<circle cx="168.667" cy="283.667" r="2.55556" fill="#344EA2" fill-opacity="0.3"/>
<circle cx="168.667" cy="117.556" r="2.55556" fill="#344EA2" fill-opacity="0.3"/>
<circle cx="168.667" cy="296.445" r="2.55556" fill="#344EA2" fill-opacity="0.3"/>
<circle cx="168.667" cy="130.334" r="2.55556" fill="#344EA2" fill-opacity="0.3"/>
<circle cx="168.667" cy="309.223" r="2.55556" fill="#344EA2" fill-opacity="0.3"/>
<circle cx="168.667" cy="143.111" r="2.55556" fill="#344EA2" fill-opacity="0.3"/>
<circle cx="168.667" cy="322.001" r="2.55556" fill="#344EA2" fill-opacity="0.3"/>
<circle cx="168.667" cy="155.889" r="2.55556" fill="#344EA2" fill-opacity="0.3"/>
<circle cx="168.667" cy="334.778" r="2.55556" fill="#344EA2" fill-opacity="0.3"/>
<circle cx="168.667" cy="168.667" r="2.55556" fill="#344EA2" fill-opacity="0.3"/>
<circle cx="168.667" cy="347.556" r="2.55556" fill="#344EA2" fill-opacity="0.3"/>
<circle cx="181.444" cy="2.55556" r="2.55556" fill="#344EA2" fill-opacity="0.3"/>
<circle cx="181.444" cy="181.445" r="2.55556" fill="#344EA2" fill-opacity="0.3"/>
<circle cx="181.444" cy="15.3335" r="2.55556" fill="#344EA2" fill-opacity="0.3"/>
<circle cx="181.444" cy="194.223" r="2.55556" fill="#344EA2" fill-opacity="0.3"/>
<circle cx="181.444" cy="28.1111" r="2.55556" fill="#344EA2" fill-opacity="0.3"/>
<circle cx="181.444" cy="207" r="2.55556" fill="#344EA2" fill-opacity="0.3"/>
<circle cx="181.444" cy="40.8889" r="2.55556" fill="#344EA2" fill-opacity="0.3"/>
<circle cx="181.444" cy="219.778" r="2.55556" fill="#344EA2" fill-opacity="0.3"/>
<circle cx="181.444" cy="53.6668" r="2.55556" fill="#344EA2" fill-opacity="0.3"/>
<circle cx="181.444" cy="232.556" r="2.55556" fill="#344EA2" fill-opacity="0.3"/>
<circle cx="181.444" cy="66.4446" r="2.55556" fill="#344EA2" fill-opacity="0.3"/>
<circle cx="181.444" cy="245.334" r="2.55556" fill="#344EA2" fill-opacity="0.3"/>
<circle cx="181.444" cy="79.2223" r="2.55556" fill="#344EA2" fill-opacity="0.3"/>
<circle cx="181.444" cy="258.111" r="2.55556" fill="#344EA2" fill-opacity="0.3"/>
<circle cx="181.444" cy="92.0001" r="2.55556" fill="#344EA2" fill-opacity="0.3"/>
<circle cx="181.444" cy="270.889" r="2.55556" fill="#344EA2" fill-opacity="0.3"/>
<circle cx="181.444" cy="104.778" r="2.55556" fill="#344EA2" fill-opacity="0.3"/>
<circle cx="181.444" cy="283.667" r="2.55556" fill="#344EA2" fill-opacity="0.3"/>
<circle cx="181.444" cy="117.556" r="2.55556" fill="#344EA2" fill-opacity="0.3"/>
<circle cx="181.444" cy="296.445" r="2.55556" fill="#344EA2" fill-opacity="0.3"/>
<circle cx="181.444" cy="130.334" r="2.55556" fill="#344EA2" fill-opacity="0.3"/>
<circle cx="181.444" cy="309.223" r="2.55556" fill="#344EA2" fill-opacity="0.3"/>
<circle cx="181.444" cy="143.111" r="2.55556" fill="#344EA2" fill-opacity="0.3"/>
<circle cx="181.444" cy="322.001" r="2.55556" fill="#344EA2" fill-opacity="0.3"/>
<circle cx="181.444" cy="155.889" r="2.55556" fill="#344EA2" fill-opacity="0.3"/>
<circle cx="181.444" cy="334.778" r="2.55556" fill="#344EA2" fill-opacity="0.3"/>
<circle cx="181.444" cy="168.667" r="2.55556" fill="#344EA2" fill-opacity="0.3"/>
<circle cx="181.444" cy="347.556" r="2.55556" fill="#344EA2" fill-opacity="0.3"/>
</svg>
